<svg xmlns="http://www.w3.org/2000/svg" xmlns:xlink="http://www.w3.org/1999/xlink" width="150" zoomAndPan="magnify" viewBox="0 0 112.5 74.999997" height="100" preserveAspectRatio="xMidYMid meet" version="1.0"><defs><clipPath id="95c8abd2f6"><path d="M 0 0.164062 L 112.003906 0.164062 L 112.003906 74.832031 L 0 74.832031 Z M 0 0.164062 " clip-rule="nonzero"/></clipPath><clipPath id="9cbbf5a313"><path d="M 26.855469 0.640625 L 82.855469 0.640625 L 82.855469 74.5625 L 26.855469 74.5625 Z M 26.855469 0.640625 " clip-rule="nonzero"/></clipPath></defs><g clip-path="url(#95c8abd2f6)"><path fill="#ffffff" d="M 0 0.164062 L 112.003906 0.164062 L 112.003906 74.835938 L 0 74.835938 Z M 0 0.164062 " fill-opacity="1" fill-rule="nonzero"/><path fill="#ffffff" d="M 0 0.164062 L 112.003906 0.164062 L 112.003906 74.835938 L 0 74.835938 Z M 0 0.164062 " fill-opacity="1" fill-rule="nonzero"/></g><g clip-path="url(#9cbbf5a313)"><path fill="#a6a6a6" d="M 82.445312 18.765625 L 64.757812 1.074219 C 64.480469 0.796875 64.105469 0.640625 63.714844 0.640625 L 28.332031 0.640625 C 27.519531 0.640625 26.859375 1.300781 26.859375 2.117188 L 26.859375 72.878906 C 26.859375 73.695312 27.519531 74.351562 28.332031 74.351562 L 81.40625 74.351562 C 82.21875 74.351562 82.878906 73.695312 82.878906 72.878906 L 82.878906 19.804688 C 82.878906 19.414062 82.722656 19.039062 82.445312 18.765625 Z M 65.1875 5.675781 L 77.84375 18.332031 L 65.1875 18.332031 Z M 29.804688 71.402344 L 29.804688 3.589844 L 62.238281 3.589844 L 62.238281 19.804688 C 62.238281 20.621094 62.898438 21.28125 63.714844 21.28125 L 79.929688 21.28125 L 79.929688 71.402344 Z M 29.804688 71.402344 " fill-opacity="1" fill-rule="nonzero"/></g><path fill="#a6a6a6" d="M 40.125 21.28125 L 51.917969 21.28125 C 52.734375 21.28125 53.394531 20.621094 53.394531 19.804688 C 53.394531 18.992188 52.734375 18.332031 51.917969 18.332031 L 40.125 18.332031 C 39.3125 18.332031 38.652344 18.992188 38.652344 19.804688 C 38.652344 20.621094 39.3125 21.28125 40.125 21.28125 Z M 40.125 21.28125 " fill-opacity="1" fill-rule="nonzero"/><path fill="#a6a6a6" d="M 69.609375 30.125 L 40.125 30.125 C 39.3125 30.125 38.652344 30.785156 38.652344 31.601562 C 38.652344 32.414062 39.3125 33.074219 40.125 33.074219 L 69.609375 33.074219 C 70.425781 33.074219 71.085938 32.414062 71.085938 31.601562 C 71.085938 30.785156 70.425781 30.125 69.609375 30.125 Z M 69.609375 30.125 " fill-opacity="1" fill-rule="nonzero"/><path fill="#a6a6a6" d="M 69.609375 41.917969 L 40.125 41.917969 C 39.3125 41.917969 38.652344 42.578125 38.652344 43.394531 C 38.652344 44.210938 39.3125 44.867188 40.125 44.867188 L 69.609375 44.867188 C 70.425781 44.867188 71.085938 44.210938 71.085938 43.394531 C 71.085938 42.578125 70.425781 41.917969 69.609375 41.917969 Z M 69.609375 41.917969 " fill-opacity="1" fill-rule="nonzero"/><path fill="#a6a6a6" d="M 69.609375 53.714844 L 40.125 53.714844 C 39.3125 53.714844 38.652344 54.371094 38.652344 55.1875 C 38.652344 56.003906 39.3125 56.660156 40.125 56.660156 L 69.609375 56.660156 C 70.425781 56.660156 71.085938 56.003906 71.085938 55.1875 C 71.085938 54.371094 70.425781 53.714844 69.609375 53.714844 Z M 69.609375 53.714844 " fill-opacity="1" fill-rule="nonzero"/></svg>